<?xml version="1.0" encoding="utf-8"?>
<!-- Generator: Adobe Illustrator 24.0.1, SVG Export Plug-In . SVG Version: 6.00 Build 0)  -->
<svg version="1.1" id="Capa_1" xmlns="http://www.w3.org/2000/svg" xmlns:xlink="http://www.w3.org/1999/xlink" x="0px" y="0px"
	 viewBox="0 0 70 70" style="enable-background:new 0 0 70 70;" xml:space="preserve">
<style type="text/css">
	.st0{fill:#6FB2E2;}
	.st1{fill:none;}
	.st2{fill:#E8451E;}
</style>
<path class="st0" d="M74,37.5c0-18.7-13.4-34.4-31-38l4.4,10.4c10.6,4.7,18,15.3,18,27.6c0,16.6-13.5,30.1-30.1,30.1
	S5.2,54.1,5.2,37.5c0-12.3,7.4-22.9,18-27.6l4.4-10.4c-17.7,3.6-31,19.2-31,38c0,21.4,17.4,38.7,38.7,38.7S74,58.8,74,37.5z"/>
<path class="st1" d="M76.2,37.5H63.3 M7.3,37.5H-5.6 M35.3,65.4v12.9"/>
<path class="st2" d="M35.3-7.7l17.2,40.9L35.3,22.4L18.1,33.2L35.3-7.7z"/>
</svg>
